<svg height="512pt" viewBox="0 0 512 512.00052" width="512pt" xmlns="http://www.w3.org/2000/svg"><path d="m503.070312 160.707031-30.425781-20.28125v-120.402343c0-11.046876-8.953125-20.0000005-20-20.0000005h-78.660156c-11.046875 0-20 8.9531245-20 20.0000005v41.292968l-86.902344-57.933594c-13.257812-8.839843-31.09375.675782-31.09375 16.640626v67.917968l-227.085937 151.429688c-5.5625 3.710937-8.902344 9.953125-8.902344 16.640625v235.988281c0 11.046875 8.953125 20 20 20h471.976562c11.046876 0 20-8.953125 20-20v-314.652344c0-6.6875-3.339843-12.929687-8.90625-16.640625zm-109.085937-120.683593h38.664063v73.734374l-38.664063-25.773437zm-353.988281 226.691406 195.992187-130.699219v335.988281h-38.664062v-97.996094c0-11.046874-8.953125-20-20-20h-78.664063c-11.042968 0-19.996094 8.953126-19.996094 20v97.996094h-38.667968zm117.328125 205.289062h-38.664063v-78h38.664063zm235.992187 0h-38.664062v-117.328125h38.664062zm78.664063 0h-38.667969v-137.328125c0-11.046875-8.953125-20-19.996094-20h-78.664062c-11.046875 0-20 8.953125-20 20v137.328125h-38.664063v-414.613281c14.753907 9.835937 186.835938 124.558594 195.992188 130.660156zm0 0"/></svg>