<?xml version="1.0" encoding="utf-8"?>
<svg viewBox="1.039 -1 15.926 14.265" version="1.1" xmlns="http://www.w3.org/2000/svg">
  <g stroke-width="1">
    <path d="M 14.1 0 L 3.902 0 C 2.873 0 2.039 0.795 2.039 2.094 L 2.039 7.938 C 2.039 9.237 2.873 9.989 3.902 9.989 L 4.641 10.009 L 7.381 12.265 L 7.545 10.009 L 14.101 9.989 C 15.13 9.989 15.965 9.237 15.965 7.938 L 15.965 2.094 C 15.964 0.795 15.129 0 14.1 0 L 14.1 0 Z M 5.02 6.312 C 4.301 6.312 3.719 5.722 3.719 4.994 C 3.719 4.266 4.301 3.677 5.02 3.677 C 5.741 3.677 6.321 4.267 6.321 4.994 C 6.32 5.723 5.74 6.312 5.02 6.312 L 5.02 6.312 Z M 9 6.24 C 8.291 6.24 7.719 5.682 7.719 4.994 C 7.719 4.306 8.291 3.749 9 3.749 C 9.707 3.749 10.281 4.307 10.281 4.994 C 10.281 5.683 9.707 6.24 9 6.24 L 9 6.24 Z M 13 6.24 C 12.295 6.24 11.719 5.682 11.719 4.994 C 11.719 4.306 12.295 3.749 13 3.749 C 13.707 3.749 14.281 4.307 14.281 4.994 C 14.281 5.683 13.707 6.24 13 6.24 L 13 6.24 Z"/>
  </g>
</svg>
