<?xml version="1.0" encoding="utf-8"?>
<svg width="24" height="24" viewBox="0 0 24 23.999" xmlns="http://www.w3.org/2000/svg">
  <path d="M 20.873 18.68 L 18.656 20.897 L 15.818 20.106 L 15.007 20.441 L 13.55 22.999 L 10.415 22.999 L 8.966 20.432 L 8.156 20.093 L 5.318 20.873 L 3.102 18.657 L 3.893 15.819 L 3.558 15.008 L 1 13.55 L 1 10.415 L 3.568 8.966 L 3.907 8.156 L 3.127 5.318 L 5.342 3.103 L 8.18 3.894 L 8.991 3.56 L 10.445 1 L 13.581 1 L 15.03 3.568 L 15.84 3.907 L 18.677 3.127 L 20.896 5.342 L 20.105 8.181 L 20.44 8.992 L 23 10.446 L 23 13.582 L 20.433 15.03 L 20.092 15.843 L 20.873 18.68 Z M 17.981 15.708 L 18.853 13.626 L 21 12.414 L 21 11.61 L 18.853 10.391 L 17.994 8.307 L 18.656 5.932 L 18.087 5.364 L 15.704 6.019 L 13.624 5.147 L 12.413 3 L 11.609 3 L 10.39 5.147 L 8.306 6.006 L 5.93 5.343 L 5.364 5.909 L 6.019 8.292 L 5.147 10.372 L 3 11.583 L 3 12.388 L 5.145 13.61 L 6.004 15.693 L 5.342 18.069 L 5.909 18.636 L 8.292 17.981 L 10.371 18.853 L 11.583 20.999 L 12.387 20.999 L 13.609 18.854 L 15.692 17.995 L 18.068 18.657 L 18.636 18.089 L 17.981 15.708 Z M 12 16 C 9.791 16 8 14.209 8 12 C 8 10.585 8.734 9.342 9.843 8.631 C 10.465 8.232 11.206 8 12 8 C 14.209 8 16 9.791 16 12 C 16 14.209 14.209 16 12 16 Z M 12 14 C 13.105 14 14 13.105 14 12 C 14 10.895 13.105 10 12 10 C 10.895 10 10 10.895 10 12 C 10 13.105 10.895 14 12 14 Z" style="stroke-linejoin: round; stroke-linecap: round; fill-rule: evenodd; paint-order: stroke markers; stroke: rgb(0, 0, 0); stroke-width: 0;"/>
</svg>